<svg width="189" height="189" viewBox="0 0 189 189" fill="none" xmlns="http://www.w3.org/2000/svg">
<g filter="url(#filter0_d)">
<rect x="1" width="187" height="187" rx="5" fill="#F7F7F7"/>
<rect x="1.5" y="0.5" width="186" height="186" rx="4.5" stroke="#9F9F9F"/>
</g>
<path d="M178.15 170.637C178.15 174.234 175.234 177.15 171.637 177.15C168.041 177.15 165.125 174.234 165.125 170.637C165.125 167.041 168.041 164.125 171.637 164.125C175.234 164.125 178.15 167.041 178.15 170.637Z" stroke="#9F9F9F"/>
<g clip-path="url(#clip0)">
<path fill-rule="evenodd" clip-rule="evenodd" d="M35.2837 38.6742L35.9637 44.3828C36.3802 48.6438 39.5244 83.741 39.7976 84.9841L53.6202 85.1014L53.6221 38.0309L35.2837 38.0271V38.6742Z" fill="#9F9F9F"/>
<path fill-rule="evenodd" clip-rule="evenodd" d="M108.739 109.322C108.135 109.171 107.667 109.054 107.323 109.076C106.333 110.19 107.033 111.674 108.131 112.045C109.119 112.378 115.764 112.342 116.888 111.996C118.083 111.627 118.454 110.323 117.868 109.085C117.336 108.996 116.714 109.187 116.126 109.367C115.859 109.449 115.599 109.529 115.357 109.579C112.314 110.216 110.154 109.676 108.739 109.322ZM103.302 98.2927C102.591 99.2804 105.092 103.617 105.871 103.982V103.984C108.815 103.984 111.768 103.982 114.712 103.963C115.178 103.96 115.601 103.961 115.987 103.962C119.196 103.971 119.798 103.972 120.964 101.54C123.155 96.9682 121.478 92.1054 117.594 89.4791C117.049 89.1104 116.562 89.2792 115.916 89.503C114.868 89.8659 113.403 90.3732 110.599 88.9664C109.585 88.4574 108.077 88.5331 107.837 89.7081C107.725 90.2522 107.731 90.815 107.738 91.3884C107.746 92.1391 107.754 92.9078 107.499 93.6759C106.676 96.1434 104.81 97.3027 103.859 97.894C103.573 98.0713 103.37 98.1976 103.302 98.2927ZM105.362 85.8548C106.193 86.5282 106.344 86.6504 107.856 85.7062L107.856 85.7045C107.856 85.7045 107.856 85.7044 107.856 85.7044L107.726 73.782L107.726 73.7806C107.729 73.1001 107.745 72.5502 107.758 72.0962C107.813 70.1905 107.819 69.975 106.59 68.8871C106.273 68.6063 106.007 68.3174 105.736 68.0232C105.534 67.8041 105.33 67.582 105.1 67.3583C104.576 66.8474 104.162 66.4481 103.627 65.9411C101.835 64.2438 98.0546 62.5598 94.6506 62.8853C87.2052 63.5965 82.3633 70.3088 83.5869 77.0798C83.7921 78.2171 84.1685 79.3562 84.7323 80.4688C85.1487 81.2862 86.7572 83.5492 87.2596 83.8538C87.614 84.0683 92.8494 84.0392 96.3117 84.0199C97.6455 84.0125 98.7161 84.0066 99.1432 84.0166L99.2036 84.018C101.048 84.0609 102.813 84.1019 104.186 84.9891C104.713 85.3286 105.077 85.6241 105.362 85.8548ZM154.029 54.9005V56.1247C153.89 56.4067 153.803 56.7109 153.71 57.0337C153.479 57.8434 153.214 58.77 152.013 59.7576C150.762 60.7869 149.675 61.3091 148.093 61.3148L137.048 61.5343C137.241 61.8159 138.522 62.4178 140.157 63.1863C142.885 64.4678 146.598 66.2125 147.891 67.7064C151.157 71.4793 147.878 77.4849 142.945 77.186C141.709 77.1106 134.264 73.4569 128.148 70.4552C123.82 68.3311 120.157 66.5334 119.831 66.5617C119.65 68.7265 119.668 72.5916 119.684 76.2275C119.694 78.3054 119.703 80.3084 119.675 81.8766C119.605 85.756 119.212 86.451 119.414 86.825C119.56 87.0948 120.015 87.1976 121.123 88.2076C122.725 89.6703 124.087 92.0714 124.733 94.2757C125.23 95.9767 125.1 98.4876 124.781 100.24C124.362 102.545 123.487 103.659 122.862 104.455C122.22 105.273 121.842 105.756 122.492 106.851C123.409 108.395 123.289 112.605 123.221 115.005C123.212 115.325 123.204 115.612 123.199 115.857C123.193 116.158 123.191 116.456 123.19 116.752C123.18 118.511 123.171 120.152 122.24 121.352C120.936 123.036 120.271 123.271 119.122 123.677C118.887 123.76 118.632 123.85 118.347 123.961L118.326 134.678C118.015 135.035 117.605 135.345 117.191 135.659C116.886 135.89 116.579 136.123 116.307 136.378C116.178 137.114 116.219 139.016 116.258 140.878C116.301 142.918 116.343 144.91 116.162 145.274C116.011 145.574 114.978 146.48 113.935 147.393C112.849 148.345 111.752 149.305 111.638 149.596C111.243 149.451 110.055 148.332 108.899 147.242C108.078 146.469 107.273 145.71 106.779 145.325L106.757 123.994C103.888 123.049 103.319 122.54 102.028 119.927C101.652 119.165 101.734 115.335 101.784 112.996C101.797 112.385 101.808 111.875 101.808 111.549C101.808 111.203 101.798 110.882 101.788 110.579C101.752 109.465 101.724 108.587 102.242 107.564C102.791 106.477 103.046 106.112 103.005 105.784C102.974 105.535 102.77 105.307 102.394 104.798C100.797 102.634 100.425 101.005 100.191 99.9749C100.053 99.3727 99.9625 98.9754 99.701 98.796C99.4202 98.6049 83.376 98.6238 80.5355 98.6427C80.4132 98.6437 80.3062 98.6455 80.2116 98.6472C79.5144 98.6594 79.4932 98.6598 79.0054 98.1716L74.2584 93.4659C72.3463 91.6171 70.4587 89.7165 68.5785 87.8235C66.6045 85.8359 64.6386 83.8565 62.6613 81.9541C61.0853 80.4374 60.741 79.9335 60.283 79.7886C59.8206 79.6422 59.2424 79.8619 57.1636 79.7744L57.2686 43.9261C57.916 43.5916 62.7663 42.2044 66.0019 41.279C67.1772 40.9428 68.1395 40.6676 68.6098 40.5259C68.7981 40.4692 68.9741 40.4123 69.1427 40.3578C69.9575 40.0945 70.5992 39.8872 71.6184 40.0189L81.3397 41.2147C83.6933 41.4896 85.9692 41.7807 88.1863 42.0643C103.623 44.0389 116.214 45.6493 132.405 38.9006C132.69 38.7814 132.971 38.657 133.252 38.5329C134.783 37.8552 136.289 37.1891 138.317 37.4626C140.485 37.7559 141.79 39.0047 142.567 40.4313C143.648 42.4162 143.43 44.5316 142.428 46.3461C141.706 47.6537 140.706 48.1214 139.793 48.5486C139.242 48.8063 138.722 49.0493 138.315 49.453C140.041 49.5595 141.793 49.5613 143.551 49.5632C145.325 49.5651 147.105 49.567 148.869 49.6763C151.062 49.8125 152.604 51.2032 153.446 52.9308C153.641 53.3299 153.724 53.7147 153.802 54.0819C153.863 54.3657 153.922 54.639 154.029 54.9005Z" fill="#9F9F9F"/>
<path fill-rule="evenodd" clip-rule="evenodd" d="M105.871 103.982C108.815 103.982 111.766 103.979 114.712 103.962C119.06 103.935 119.657 104.262 120.964 101.538C123.155 96.9664 121.478 92.1055 117.594 89.4774C116.164 88.5105 115.132 91.2389 110.599 88.9646C109.585 88.4556 108.078 88.5313 107.837 89.7063C107.581 90.9608 107.951 92.3193 107.499 93.6741C106.431 96.8813 103.598 97.8784 103.302 98.2909C102.593 99.2786 105.092 103.617 105.871 103.981V103.982Z" fill="#F9F9F9"/>
<path fill-rule="evenodd" clip-rule="evenodd" d="M107.323 109.076C106.334 110.19 107.033 111.676 108.131 112.045C109.119 112.378 115.764 112.342 116.888 111.995C118.085 111.627 118.456 110.323 117.868 109.085C117.094 108.953 116.129 109.417 115.358 109.579C111.017 110.487 108.475 109.002 107.323 109.076Z" fill="#F9F9F9"/>
</g>
<defs>
<filter id="filter0_d" x="0" y="0" width="189" height="189" filterUnits="userSpaceOnUse" color-interpolation-filters="sRGB">
<feFlood flood-opacity="0" result="BackgroundImageFix"/>
<feColorMatrix in="SourceAlpha" type="matrix" values="0 0 0 0 0 0 0 0 0 0 0 0 0 0 0 0 0 0 127 0" result="hardAlpha"/>
<feOffset dy="1"/>
<feGaussianBlur stdDeviation="0.5"/>
<feComposite in2="hardAlpha" operator="out"/>
<feColorMatrix type="matrix" values="0 0 0 0 0 0 0 0 0 0 0 0 0 0 0 0 0 0 0.25 0"/>
<feBlend mode="normal" in2="BackgroundImageFix" result="effect1_dropShadow"/>
<feBlend mode="normal" in="SourceGraphic" in2="effect1_dropShadow" result="shape"/>
</filter>
<clipPath id="clip0">
<rect width="118.745" height="112.2" fill="white" transform="translate(35.2837 37.4)"/>
</clipPath>
</defs>
</svg>
