<svg width="189" height="189" viewBox="0 0 189 189" fill="none" xmlns="http://www.w3.org/2000/svg">
<g filter="url(#filter0_d)">
<rect x="1" width="187" height="187" rx="5" fill="#F7F7F7"/>
<rect x="2" y="1" width="185" height="185" rx="4" stroke="#9F9F9F" stroke-width="2"/>
</g>
<circle cx="171.637" cy="170.637" r="6.5125" stroke="#9F9F9F"/>
<g clip-path="url(#clip0)">
<path fill-rule="evenodd" clip-rule="evenodd" d="M135.142 121.587C134.938 121.451 134.668 121.211 134.452 121.035L131.069 118.205C130.478 117.729 130.139 117.242 129.369 117.242C128.802 117.242 128.279 117.825 128.235 118.322C128.184 118.901 128.675 119.46 128.925 119.813L133.113 125.741C133.853 126.742 134.253 127.262 135.586 127.262C136.134 127.262 136.722 126.939 137.03 126.664C137.466 126.272 137.618 126.038 137.949 125.542C138.513 124.696 139.035 123.915 139.583 123.094C140.675 121.46 141.75 119.85 142.852 118.2L146.102 113.288C146.658 112.455 147.219 111.686 147.726 110.83C147.992 110.38 148.363 110.022 148.21 109.435C148.09 108.976 147.579 108.552 147.044 108.552C146.548 108.552 145.644 109.596 145.356 109.971L138.136 118.28C138.007 118.433 137.915 118.494 137.785 118.64L137.045 119.496C136.871 119.721 136.868 119.729 136.674 119.924C136.266 120.333 135.61 121.274 135.142 121.587L135.142 121.587Z" fill="#9F9F9F"/>
<path d="M135.345 101.99H134.017V107.295H135.345V101.99Z" fill="#9F9F9F"/>
<path d="M135.345 138.703H134.017V144.008H135.345V138.703Z" fill="#9F9F9F"/>
<path fill-rule="evenodd" clip-rule="evenodd" d="M78.9565 70.3989V86.9293H88.6414C88.5343 86.739 88.4852 86.7624 88.4852 86.4614V70.8667C88.4852 70.4513 88.8767 69.931 88.1728 69.931H79.4252C79.0652 69.931 78.9565 70.0396 78.9565 70.3989V70.3989Z" fill="#9F9F9F"/>
<path fill-rule="evenodd" clip-rule="evenodd" d="M78.9233 92.5939V109.124H88.6082C88.5011 108.934 88.452 108.957 88.452 108.656V93.0617C88.452 92.6463 88.8435 92.126 88.1396 92.126H79.392C79.032 92.126 78.9233 92.2345 78.9233 92.5938V92.5939Z" fill="#9F9F9F"/>
<path fill-rule="evenodd" clip-rule="evenodd" d="M93.4844 70.3989V86.9292H103.013V69.931H93.953C93.593 69.931 93.4844 70.0396 93.4844 70.3989Z" fill="#9F9F9F"/>
<path fill-rule="evenodd" clip-rule="evenodd" d="M93.4512 92.5938V109.124H102.98V92.126H93.9198C93.5598 92.126 93.4512 92.2345 93.4512 92.5938Z" fill="#9F9F9F"/>
<path d="M155.723 123.698L155.726 122.371L150.412 122.363L150.41 123.689L155.723 123.698Z" fill="#9F9F9F"/>
<path d="M118.949 123.636L118.952 122.31L113.638 122.301L113.636 123.627L118.949 123.636Z" fill="#9F9F9F"/>
<path fill-rule="evenodd" clip-rule="evenodd" d="M134.941 101.434C146.914 101.434 156.62 111.124 156.62 123.077C156.62 135.03 146.914 144.72 134.941 144.72C122.968 144.72 113.261 135.03 113.261 123.077C113.261 111.124 122.968 101.434 134.941 101.434ZM134.941 96.5536C149.613 96.5536 161.508 108.428 161.508 123.077C161.508 137.725 149.613 149.6 134.941 149.6C120.268 149.6 108.373 137.725 108.373 123.077C108.373 108.428 120.268 96.5536 134.941 96.5536Z" fill="#9F9F9F"/>
<path fill-rule="evenodd" clip-rule="evenodd" d="M63.2581 56.0224C63.2581 54.1065 63.346 51.9827 63.2612 50.0933C63.1838 48.3721 62.0464 46.9774 60.2902 46.9774H49.9805C46.4288 46.9774 47.1688 51.0279 47.1688 53.0593C47.1688 56.0738 47.1536 59.0923 47.1708 62.1063C47.1763 63.0562 47.0522 63.3832 47.0118 64.1308C46.9741 64.8279 47.0244 65.6149 47.0198 66.322C46.9993 69.5025 43.548 71.2868 40.7157 73.5958C39.8714 74.284 39.0629 74.7915 38.2289 75.4796L33.0886 79.3927C32.3423 79.9887 31.1917 80.781 30.6106 81.4413C27.9123 84.5077 28.6967 88.3765 31.8658 90.3251C33.6327 91.4116 36.2683 91.7839 38.2464 91.0917C38.478 91.0107 38.8247 90.8726 39.1353 90.7316C39.6643 90.4915 39.4812 90.4644 39.9833 90.3305V132.124H35.6095V139.922H108.09L105.389 134.196C105.085 133.434 104.845 132.781 104.497 132.124H82.4715C82.4715 132.124 80.5659 132.124 79.3448 132.124C77.7843 132.124 75.3488 132.124 75.3488 132.124H69.3547H64.8591C64.8591 132.124 62.7281 132.124 61.3626 132.124C60.2727 132.124 58.5718 132.124 58.5718 132.124H48.887L49.0432 83.4688C51.1506 82.06 54.5506 79.3012 56.7868 77.6321C62.4144 73.4318 68.0878 68.8746 73.6789 64.7102L85.4179 55.6887C86.7916 54.6669 89.5093 52.1235 91.0629 52.1235C93.0305 52.1235 95.7854 54.8716 97.3771 56.1123C98.0727 56.6544 98.6388 57.0964 99.3203 57.6032L137.033 86.5427C140.276 88.9584 141.607 90.6794 145.649 91.2086C150.293 91.8166 156.375 85.9382 150.541 80.5427L135.092 68.6753C133.796 67.6406 132.508 66.6866 131.206 65.6925C122.91 59.3549 114.32 52.5779 106.036 46.3759L100.189 41.9211C99.4943 41.3794 98.9077 40.9341 98.2467 40.4292C97.5926 39.9295 97.0253 39.4521 96.3083 38.9335C93.0184 36.5542 89.6615 36.1864 86.286 38.6216L79.7674 43.6538C77.4121 45.5739 74.0912 47.8971 71.6446 49.8917C70.4122 50.8964 64.0297 55.8167 63.2581 56.0224Z" fill="#9F9F9F"/>
</g>
<defs>
<filter id="filter0_d" x="0" y="0" width="189" height="189" filterUnits="userSpaceOnUse" color-interpolation-filters="sRGB">
<feFlood flood-opacity="0" result="BackgroundImageFix"/>
<feColorMatrix in="SourceAlpha" type="matrix" values="0 0 0 0 0 0 0 0 0 0 0 0 0 0 0 0 0 0 127 0" result="hardAlpha"/>
<feOffset dy="1"/>
<feGaussianBlur stdDeviation="0.5"/>
<feComposite in2="hardAlpha" operator="out"/>
<feColorMatrix type="matrix" values="0 0 0 0 0 0 0 0 0 0 0 0 0 0 0 0 0 0 0.25 0"/>
<feBlend mode="normal" in2="BackgroundImageFix" result="effect1_dropShadow"/>
<feBlend mode="normal" in="SourceGraphic" in2="effect1_dropShadow" result="shape"/>
</filter>
<clipPath id="clip0">
<rect width="132.458" height="112.2" fill="white" transform="translate(29.0498 37.4)"/>
</clipPath>
</defs>
</svg>
