<svg width="17" height="18" viewBox="0 0 17 18" fill="none" xmlns="http://www.w3.org/2000/svg">
<path d="M16.184 11.8691L12.7311 11.1391C12.2606 11.0391 11.9502 11.3391 11.8843 11.4091L9.51334 13.9089C7.1612 12.479 5.21363 10.4092 3.8682 7.90939L6.22035 5.38958C6.43674 5.1496 6.53083 4.81963 6.47438 4.48965L5.76873 0.799938C5.68406 0.339974 5.29831 0 4.84669 0H0.942138C0.415258 0 -0.0269449 0.469964 0.00128077 1.02992C0.161226 3.9197 0.989181 6.62949 2.28756 8.99931C3.77412 11.7291 5.90986 13.9889 8.46899 15.5688C10.6988 16.9387 13.2485 17.8286 15.9676 17.9986C16.4851 18.0286 16.9367 17.5686 16.9367 16.9987V12.849C16.9367 12.369 16.6168 11.9591 16.184 11.8691ZM1.97708 1.99985H4.07519L4.51739 4.34966L2.9838 5.99954C2.47573 4.69964 2.13703 3.36974 1.97708 1.99985ZM15.055 15.8988C13.766 15.7188 12.5147 15.3688 11.2916 14.8289L12.844 13.199L15.055 13.6689V15.8988Z" fill="white"/>
</svg>
